<svg width="241" height="35" viewBox="0 0 241 35" fill="none" xmlns="http://www.w3.org/2000/svg">
<path d="M56.28 30V1.52C58.8133 1.33333 60.9333 1.24 62.64 1.24C65.36 1.24 67.6 1.94667 69.36 3.36C71.12 4.74667 72 6.72 72 9.28C72 11.0133 71.4933 12.6267 70.48 14.12C69.4667 15.6133 68.3333 16.8 67.08 17.68C68.0667 19.04 69.28 20.6667 70.72 22.56C72.1867 24.4267 73.1333 25.6 73.56 26.08C75.1867 27.8133 77.0267 28.8 79.08 29.04L79.04 30.32C77.4133 30.2933 76.0933 30.0533 75.08 29.6C74.0667 29.12 73.0933 28.4 72.16 27.44C71.2533 26.48 68.9733 23.4933 65.32 18.48C62.7067 18.48 60.3333 18.4 58.2 18.24V30H56.28ZM64.16 16.88C65.3333 16.88 66.5867 16.1067 67.92 14.56C69.2533 13.0133 69.92 11.2267 69.92 9.2C69.92 7.14667 69.2267 5.6 67.84 4.56C66.48 3.49333 64.6667 2.96 62.4 2.96C61.2 2.96 59.8 3.01333 58.2 3.12V16.68C60.3333 16.8133 62.32 16.88 64.16 16.88ZM82.1281 30V4.04H94.2481V5.64H83.9681V15.08H93.2481V16.64H83.9681V28.32H94.6481V30H82.1281ZM122.211 28.72C120.211 29.84 117.424 30.4 113.851 30.4C110.304 30.4 107.171 29.12 104.451 26.56C101.758 24 100.411 20.8267 100.411 17.04C100.411 13.2267 101.584 10.04 103.931 7.48C106.304 4.92 109.358 3.64 113.091 3.64C116.104 3.64 119.051 4.10667 121.931 5.04L121.451 6.56C118.678 5.70667 115.811 5.28 112.851 5.28C109.891 5.28 107.398 6.41333 105.371 8.68C103.371 10.92 102.371 13.68 102.371 16.96C102.371 20.2133 103.531 22.9867 105.851 25.28C108.198 27.5733 110.904 28.72 113.971 28.72C117.038 28.72 119.584 28.2933 121.611 27.44L122.211 28.72ZM128.769 30V4.04H130.609V30H128.769ZM140.214 30V4.2C142.214 3.98666 144.321 3.88 146.534 3.88C148.774 3.88 150.667 4.48 152.214 5.68C153.761 6.85333 154.534 8.64 154.534 11.04C154.534 13.44 153.481 15.4133 151.374 16.96C149.267 18.48 146.774 19.24 143.894 19.24C143.761 19.24 143.614 19.24 143.454 19.24V17.96C143.561 17.96 143.654 17.96 143.734 17.96C146.107 17.96 148.174 17.3333 149.934 16.08C151.694 14.8267 152.574 13.2 152.574 11.2C152.574 9.2 151.947 7.74667 150.694 6.84C149.467 5.93333 147.841 5.48 145.814 5.48C144.747 5.48 143.494 5.53333 142.054 5.64V30H140.214ZM161.347 30V4.04H173.467V5.64H163.187V15.08H172.467V16.64H163.187V28.32H173.867V30H161.347ZM189.55 28.64C192.963 28.64 195.696 27.72 197.75 25.88C199.83 24.04 200.87 21.2667 200.87 17.56C200.87 13.8533 199.696 10.9067 197.35 8.72C195.03 6.53333 192.163 5.44 188.75 5.44C186.323 5.44 184.456 5.49333 183.15 5.6V28.36C184.75 28.5467 186.883 28.64 189.55 28.64ZM188.75 3.8C192.75 3.8 196.083 5.04 198.75 7.52C201.443 9.97333 202.79 13.32 202.79 17.56C202.79 21.8 201.55 24.9867 199.07 27.12C196.616 29.2533 193.443 30.32 189.55 30.32C186.856 30.32 184.083 30.1867 181.23 29.92V4.04C183.363 3.88 185.87 3.8 188.75 3.8ZM210.8 30V4.04H212.64V30H210.8ZM223.525 21L219.805 30H217.925L228.805 3.88H229.885L240.845 30H238.805L235.045 21H223.525ZM229.245 6.84C228.845 8.04 228.485 9.04 228.165 9.84L224.165 19.44H234.405L230.445 9.88C229.832 8.38667 229.432 7.37333 229.245 6.84Z" fill="#42175A"/>
<path d="M28.475 18.3653C28.3207 18.1836 28.1899 17.9852 28.0821 17.7758C28.0291 23.4042 23.5654 27.9666 18.0855 27.9666C12.5728 27.9666 8.08771 23.3496 8.08771 17.6747C8.08771 11.9998 12.5728 7.38285 18.0855 7.38285C22.8279 7.38285 26.8096 10.7998 27.8298 15.3674L28.7352 8.43892L28.7556 8.28314C26.1775 5.18374 22.3508 3.21597 18.0855 3.21597C14.7579 3.21597 11.6973 4.41417 9.28814 6.41249V6.56209V6.69455V9.62919V9.74567C9.28814 11.7059 8.30122 13.4955 6.73956 14.5181V25.9891V26.1868C9.29653 29.7886 13.4296 32.1332 18.0855 32.1332C22.9779 32.1332 27.2934 29.5443 29.809 25.628V25.4161V19.2719C29.2986 19.101 28.8361 18.7905 28.475 18.3653Z" fill="#42175A"/>
<path d="M18.0856 9.13202C13.5097 9.13202 9.7868 12.9642 9.7868 17.6748C9.7868 22.3854 13.5095 26.2177 18.0856 26.2177C22.6616 26.2177 26.3843 22.3854 26.3843 17.6748C26.3843 12.9642 22.6614 9.13202 18.0856 9.13202Z" fill="#42175A"/>
<path d="M33.9622 1.68792C33.9622 0.943533 33.376 0.340118 32.6529 0.340118C31.9973 0.340118 31.4427 0.839291 31.3554 1.50824L29.4423 16.1475C29.3918 16.5328 29.5057 16.9217 29.7542 17.2144C30.0028 17.507 30.362 17.6748 30.7398 17.6748H31.508V33.3773C31.508 34.0856 32.0658 34.6599 32.7539 34.6599C33.4421 34.6599 33.9999 34.0856 33.9999 33.3773L33.9622 1.68792Z" fill="#42175A"/>
<path d="M7.58911 1.97254C7.58911 1.48945 7.20886 1.09802 6.73958 1.09802C6.2703 1.09802 5.89005 1.48945 5.89005 1.97254V6.81139H4.64408V1.97254C4.64408 1.48945 4.26383 1.09802 3.79455 1.09802C3.32528 1.09802 2.94503 1.48945 2.94503 1.97254V6.81139H1.69905V1.97254C1.69905 1.48945 1.31881 1.09802 0.849527 1.09802C0.380248 1.09802 0 1.48945 0 1.97254V9.86251C0 11.5671 1.06667 13.0193 2.54858 13.5513V33.3772C2.54858 34.0856 3.10644 34.6599 3.79455 34.6599C4.48267 34.6599 5.04053 34.0856 5.04053 33.3772V13.5513C6.52244 13.0193 7.58911 11.5671 7.58911 9.86251V1.97254Z" fill="#42175A"/>
</svg>
